<?xml version="1.0" encoding="utf-8"?>
<!-- Generator: Adobe Illustrator 26.0.0, SVG Export Plug-In . SVG Version: 6.00 Build 0)  -->
<svg version="1.1" id="Layer_2" xmlns="http://www.w3.org/2000/svg" xmlns:xlink="http://www.w3.org/1999/xlink" x="0px" y="0px"
	 width="640px" height="335.7px" viewBox="0 0 640 335.7" style="enable-background:new 0 0 640 335.7;" xml:space="preserve">
<style type="text/css">
	.st0{fill:#6F6F6F;}
	.st1{fill-rule:evenodd;clip-rule:evenodd;fill:#5B3F2E;}
	.st2{fill-rule:evenodd;clip-rule:evenodd;fill:#A9744D;}
	.st3{fill-rule:evenodd;clip-rule:evenodd;fill:#419783;}
	.st4{fill-rule:evenodd;clip-rule:evenodd;fill:#DEEBF3;}
	.st5{fill-rule:evenodd;clip-rule:evenodd;fill:#72BDA1;}
	.st6{fill-rule:evenodd;clip-rule:evenodd;fill:#C28F77;}
	.st7{fill:#5B3F2E;}
	.st8{fill:#D7A17A;}
	.st9{fill:#A9744D;}
	.st10{fill:none;stroke:#2F7EB2;stroke-width:6;stroke-miterlimit:10;}
	.st11{fill:#2F7EB2;}
	.st12{fill:#FFFFFF;stroke:#2F7EB2;stroke-width:1.7;stroke-miterlimit:10;}
	.st13{fill:none;}
	.st14{fill:#474747;}
</style>
<g id="svg-icon_00000049210725522113041050000014751454367353946009_">
	<path class="st0" d="M569,254.2c-11.1,0-20,2.7-20,6.1v0.2l0,0l0,0v9l0,0l0,0v9l0,0l0,0v9l0,0l0,0v0.7c0,1.5,1.7,2.8,4.6,3.9
		c3.8,1.5,9.6,2.3,15.4,2.3c5.7,0,11.5-0.8,15.4-2.3c2.9-1.1,4.6-2.4,4.6-3.9v-28C589.1,256.9,580.1,254.2,569,254.2z M586.9,287.5
		c0,0.8-1.2,1.7-3.4,2.5c-0.5,0.2-1,0.3-1.6,0.5c-3.5,1-8.1,1.5-12.9,1.5c-4.8,0-9.4-0.5-12.9-1.5c-0.6-0.2-1.1-0.3-1.6-0.5
		c-2.2-0.8-3.4-1.8-3.4-2.5v-5.7c3.5,2.4,10.7,3.6,17.9,3.6c7.2,0,14.4-1.2,17.9-3.6V287.5L586.9,287.5z M586.9,278.5
		c0,1.9-7,4.7-17.9,4.7c-10.9,0-17.9-2.8-17.9-4.7v-5.7c3.5,2.4,10.7,3.6,17.9,3.6c7.2,0,14.4-1.2,17.9-3.6V278.5L586.9,278.5z
		 M586.9,269.5c0,1.9-7,4.7-17.9,4.7c-10.9,0-17.9-2.8-17.9-4.7v-5.7c3.5,2.4,10.7,3.6,17.9,3.6c7.2,0,14.4-1.2,17.9-3.6V269.5
		L586.9,269.5z M551.1,260.3c0.2-0.3,1.3-1.5,5-2.5c3.5-1,8.1-1.5,12.9-1.5c4.8,0,9.4,0.5,12.9,1.5c3.7,1,4.8,2.1,5,2.5v0.1l0,0
		c0,1.9-7,4.7-17.9,4.7c-10.9,0-17.9-2.8-17.9-4.7V260.3z"/>
</g>
<g id="svg-icon_00000028293161089416935240000006174959908526577316_">
	<path class="st0" d="M76.2,268.6H55.6v-7.7c0-1.8-1.5-3.3-3.3-3.3H23.1c-1.8,0-3.3,1.5-3.3,3.3v16.1c0,1.8,1.5,3.3,3.3,3.3h2.7v4.7
		c0,0.9,0.5,1.6,1.3,2c0.3,0.1,0.5,0.2,0.8,0.2c0.5,0,1.1-0.2,1.5-0.6l6.1-6.1h7.2v8c0,1.2,1,2.2,2.2,2.2h10.8
		c0.3,0,0.5,0.1,0.8,0.3l6.6,6.6c0.7,0.7,1.8,0.2,1.8-0.8V291c0-0.3,0.2-0.5,0.5-0.5h10.9c1.2,0,2.2-1,2.2-2.2v-17.4
		C78.4,269.6,77.4,268.6,76.2,268.6z M42.6,270.8v7.3h-7.4v0.1c-0.4,0-0.8,0.2-1.1,0.5l-6.2,6.1v-5c0-0.9-0.7-1.6-1.6-1.6h-3.3
		c-0.6,0-1.1-0.5-1.1-1.1v-16.1c0-0.6,0.5-1.1,1.1-1.1h29.3c0.6,0,1.1,0.5,1.1,1.1v7.7h-8.7C43.6,268.6,42.6,269.6,42.6,270.8z
		 M54,279.9c0,0.1,0,0.1,0,0.1c-0.3,0.9-1.1,1.6-2.2,1.6c-0.9,0-1.7-0.5-2-1.4c-0.1-0.1-0.1-0.3-0.1-0.4c-0.1-0.1-0.1-0.3-0.1-0.4
		s0-0.3,0.1-0.4c0-0.1,0.1-0.1,0.1-0.2c0-0.1,0.1-0.1,0.1-0.2c0.1-0.1,0.1-0.2,0.1-0.3c0,0,0-0.1,0.1-0.1c0.1-0.1,0.1-0.2,0.2-0.3
		c0.4-0.5,1-0.8,1.7-0.8c0.5,0,1,0.2,1.4,0.5c0.1,0.1,0.2,0.2,0.3,0.3c0.1,0.1,0.2,0.2,0.2,0.4c0,0,0,0.1,0.1,0.1
		c0.1,0.1,0.1,0.2,0.1,0.4c0,0.1,0,0.1,0.1,0.1c0.1,0.2,0.1,0.3,0.1,0.5C54,279.6,54,279.7,54,279.9z M60.5,281.6
		c-1.2,0-2.2-1-2.2-2.2c0-1.2,1-2.2,2.2-2.2s2.2,1,2.2,2.2C62.7,280.7,61.7,281.6,60.5,281.6z M69.2,281.6c-1.2,0-2.2-1-2.2-2.2
		c0-1.2,1-2.2,2.2-2.2s2.2,1,2.2,2.2C71.3,280.7,70.4,281.6,69.2,281.6z"/>
</g>
<g>
	<path class="st1" d="M56,10.4c1.4,1.5,4.2,5.6,6.5,7.4c-3.5,5.5-1.6,7.6-16.7,6.1c-7.9-0.8-12.2-7.5-9.3-12.5
		C39.4,6.7,49.2,3.1,56,10.4L56,10.4z"/>
	<path class="st2" d="M40.3,35.3l3.4,0.2c2.8,0,5.6,0,8.4-0.2l0.6,4.5c0.3,2.3,1,3.9,3.4,4.2c6.1,0.8,10,1.8,12.7,5.8
		c2.1,3.1,3.8,7.7,3.3,11.4c-0.7,5.1-3.9,7.1-8.4,8.7c-0.3,0.1-0.7,0.2-1,0.3c-4.6,4.7-28.4,4.7-33,0c-0.4-0.1-0.7-0.2-1-0.3
		c-4.5-1.6-7.7-3.6-8.4-8.7c-0.5-3.7,1.2-8.4,3.3-11.4c2.7-4,6.5-5,12.7-5.8c2.4-0.3,3.1-1.9,3.4-4.2L40.3,35.3L40.3,35.3z"/>
	<path class="st3" d="M61.7,45c3.1,0.8,5.3,2.2,7.1,4.8c4.9,7.3,3.4,15.6,3.4,24h-52c0-8.3-1.5-16.7,3.4-24c1.8-2.6,4-4,7.1-4.8
		c4.1,3.4,9.5,5.4,15.5,5.4C52.2,50.4,57.6,48.4,61.7,45L61.7,45z"/>
	<path class="st4" d="M61.7,45c1.2,0.3,2.2,0.7,3.2,1.2c-4.9,4.5-11.4,7.2-18.7,7.2c-7.2,0-13.8-2.8-18.7-7.2c1-0.5,2-0.9,3.2-1.2
		c4.1,3.4,9.5,5.4,15.5,5.4C52.2,50.4,57.6,48.4,61.7,45L61.7,45z"/>
	<path class="st5" d="M71.5,56.1c1.4,5.6,0.6,11.7,0.6,17.7h-52c0-6-0.8-12.1,0.6-17.7c6.8,5.3,15.6,8.5,25.4,8.5
		C55.9,64.6,64.8,61.4,71.5,56.1L71.5,56.1z"/>
	<path class="st3" d="M30.4,73.8h-1.5l0.4-4.3c0.7-7.2,0.6-7.4,0.9,0L30.4,73.8L30.4,73.8z"/>
	<path class="st3" d="M63.4,73.8H62l0.2-4.3c0.3-7.4,0.1-7.2,0.9,0L63.4,73.8L63.4,73.8z"/>
	<path class="st6" d="M57.9,25.5c-0.3-0.4-0.8-0.5-1.2-0.4c0.1-1.4,0.2-2.8,0.4-3.6C59.3,13.1,53.2,9,46.2,7.9
		c-6.3,0.8-12.8,5.8-10.8,13.7c0.2,0.9,0.3,2.2,0.4,3.4c-0.4,0-0.8,0.1-1.1,0.4c-0.8,0.9-0.4,2.9,0.3,4.3c0.3,0.5,0.6,1,1.1,1.3
		c0.3,0.2,0.6,0.3,0.9,0.3c1.1,3,2.7,5.2,4.8,7c3.8,3.2,5,3.2,8.8,0c2.1-1.8,3.8-4.1,4.8-7.2c0.2,0.4,0.7,0.2,1.1-0.1
		c0.4-0.3,0.8-0.8,1-1.3C58.3,28.4,58.6,26.4,57.9,25.5L57.9,25.5z"/>
	<path class="st1" d="M39,10.4c-1.1-1-3.9,0.6-5.1,3.1c-2.3,5.2,0.2,10.2,1.6,11.7c1.3-2.7-0.6-7.8,2.5-8.8c0.1-1.1,3.3-6.4,1.8-5.8
		L39,10.4L39,10.4z"/>
	<path class="st1" d="M38.4,14c0,0,1.1,6,6.9,6.6c-7.6,0.9-9.1-4.4-8.5-3.6L38.4,14L38.4,14z"/>
	<path class="st1" d="M41.5,25c0.8,0,1.4,0.6,1.4,1.4c0,0.8-0.6,1.4-1.4,1.4c-0.8,0-1.4-0.6-1.4-1.4C40.2,25.7,40.8,25,41.5,25
		L41.5,25z"/>
	<path class="st1" d="M51,25c0.8,0,1.4,0.6,1.4,1.4c0,0.8-0.6,1.4-1.4,1.4c-0.8,0-1.4-0.6-1.4-1.4C49.7,25.7,50.3,25,51,25L51,25z"
		/>
	<path class="st7" d="M39.5,24.1c-0.3,0-0.5-0.2-0.6-0.5c0-0.3,0.2-0.5,0.4-0.6l3.3-0.3c0.3,0,0.5,0.2,0.6,0.5
		c0,0.3-0.2,0.5-0.5,0.6L39.5,24.1L39.5,24.1z"/>
	<path class="st8" d="M53.1,23.1c0.3,0,0.5,0.3,0.5,0.6c0,0.3-0.3,0.5-0.6,0.5l-3.3-0.3c-0.3,0-0.5-0.3-0.5-0.6
		c0-0.3,0.3-0.5,0.6-0.5L53.1,23.1L53.1,23.1z"/>
	<path class="st9" d="M47.8,35.9c0.2-0.2,0.5-0.1,0.7,0.1c0.2,0.2,0.1,0.5-0.1,0.7c-0.1,0.1-0.2,0.2-0.3,0.2
		c-0.2,0.1-0.4,0.2-0.6,0.3c-0.2,0.1-0.4,0.1-0.6,0.2c-1,0.2-2,0-2.8-0.7c-0.2-0.2-0.3-0.5-0.1-0.7c0.2-0.2,0.5-0.3,0.7-0.1
		c0.6,0.4,1.3,0.6,2,0.5c0.1,0,0.3-0.1,0.4-0.1c0.1-0.1,0.3-0.1,0.4-0.2C47.7,36,47.7,35.9,47.8,35.9L47.8,35.9z"/>
	<path class="st9" d="M44.5,23.8c-0.1-0.1-0.1-0.3,0-0.4c0.1-0.1,0.3-0.1,0.4,0c0.9,0.7,1.2,1.9,1.1,3.4c-0.1,1.4-0.5,3.2-1,5.4
		c0,0,0.1,0,0.1,0.1c0.1,0.1,0.2,0.1,0.3,0.1c0.6,0.2,1.3,0.3,1.8-0.1c0.1-0.1,0.3-0.1,0.4,0.1c0.1,0.1,0.1,0.3-0.1,0.4
		c-0.6,0.5-1.6,0.4-2.3,0.1c-0.1-0.1-0.3-0.1-0.4-0.2c-0.1-0.1-0.2-0.2-0.3-0.2l0,0l-0.1-0.1l0-0.2c0.6-2.2,1-4.1,1.1-5.5
		C45.5,25.4,45.2,24.4,44.5,23.8L44.5,23.8z"/>
	<path class="st1" d="M42.6,6.9c5.9-1.1,10.5-0.4,14,4.3c1,1.3,1.8,7.4,4.9,7.1c-0.8,1.1-2.7,2.1-2.5,3.4c0.2,1,1.8,2.7,5,2.2
		c-1.5,1.9-3.7,2.2-5.9,1.7c-0.3-0.1-0.7-1.4-1.2-0.3c-10.4,3.5-11.1-13.8-20.7-8.2c0-0.4,0.4-3.7,0.4-3.7
		C36.5,11.2,37.9,8.2,42.6,6.9L42.6,6.9z"/>
</g>
<g>
	<g id="svg-icon_00000036211371456009468740000016680184693783764636_">
		<polygon class="st0" points="322.1,137.4 322.5,137 325.9,132.3 323.2,129.6 318.6,133.1 306,145.7 309.9,149.6 		"/>
		<path class="st0" d="M324.1,159.1c-1.6-1.6-3.7-2.4-5.9-2.4c-1,0-2,0.2-2.9,0.5l-17-17c1.1-3,0.4-6.5-2-8.8
			c-1.6-1.6-3.7-2.4-5.9-2.4c-1,0-2,0.2-3,0.5c0,0-0.7,0.4-0.3,0.8c0.3,0.4,6,5.7,6,5.7l-1.1,2.9l-2.8,1.1c0,0-5.4-5.5-5.7-5.9
			c-0.4-0.4-0.8,0.3-0.8,0.3c-1.1,3.1-0.4,6.6,1.9,8.8s5.7,3,8.8,2l17,17c-1.1,3-0.4,6.5,2,8.8c1.6,1.6,3.7,2.4,5.9,2.4
			c1,0,2-0.2,2.9-0.5c0,0,0.7-0.4,0.3-0.8c-0.4-0.4-5.9-5.7-5.9-5.7l1.1-2.9l2.9-1.1c0,0,5.4,5.6,5.7,5.9c0.4,0.4,0.8-0.3,0.8-0.3
			C327.2,164.9,326.5,161.4,324.1,159.1z M311,157.8c-0.4,0.4-1,0.3-1.5-0.1L297.8,146c-0.4-0.4-0.5-1.1-0.1-1.5
			c0.4-0.4,1-0.3,1.5,0.1l11.8,11.8C311.4,156.8,311.4,157.5,311,157.8z"/>
		<path class="st0" d="M286.2,160.9c-0.7,0.3-1.2,0.8-1.7,1.2c-0.1,0.1-0.1,0.1-0.2,0.2l-0.3,0.4c-2.2,2.7-2.1,6.4,0.2,8.7
			c1.1,1.1,2.7,1.7,4.3,1.7c1.6,0,3.1-0.5,4.4-1.6l0.1-0.1c0.1-0.1,0.2-0.2,0.4-0.3c0.5-0.5,0.9-1.1,1.3-1.7
			c0.1-0.1,3.7-5.7,8.9-11.8L298,152C291.7,157.5,286.4,160.8,286.2,160.9z"/>
	</g>
</g>
<g>
	<g id="svg-icon_00000062182850573044711220000001313989007170013314_">
		<path class="st0" d="M562.1,36.6l-3.8-6.5c-0.1-0.3-0.4-0.4-0.7-0.4h-10.9c-0.2,0-0.3,0.1-0.4,0.2c-0.4,0.2-0.6,0.7-0.3,1.1
			l9.4,15.8l0.1,0.1l0.1,0.1c0.1,0.1,0.2,0.2,0.2,0.2c0.1,0.1,0.2,0.1,0.2,0.1c0.1,0,0.2,0.1,0.2,0.1c0.1,0,0.2,0,0.2-0.1
			c0.1,0,0.2-0.1,0.2-0.1c0.2-0.1,0.2-0.2,0.4-0.3l5.4-9.3C562.2,37.2,562.2,36.8,562.1,36.6z"/>
		<path class="st0" d="M566.6,43.9l-2-3.5c-0.1-0.2-0.2-0.2-0.3-0.4l-0.2-0.1h-0.1c-0.1,0-0.2-0.1-0.3-0.1l0,0l0,0
			c-0.2,0-0.2,0-0.2,0.1c-0.1,0-0.2,0-0.2,0.1c-0.1,0.1-0.2,0.2-0.3,0.4l-5.4,9.4c-0.2,0.3-0.2,0.6,0,0.8l2,3.5
			c0.1,0.1,0.2,0.2,0.4,0.4c0.1,0.1,0.1,0.1,0.2,0.1c0.1,0,0.2,0.1,0.2,0.1c0.2,0,0.2,0,0.2-0.1c0.1,0,0.2,0,0.2-0.1
			c0.2-0.1,0.2-0.2,0.2-0.2c0.1-0.1,0.1-0.1,0.2-0.2l5.4-9.5C566.8,44.5,566.8,44.2,566.6,43.9z"/>
		<path class="st0" d="M600.7,30.1c-0.2-0.3-0.4-0.4-0.7-0.4h-10.8c-0.2,0-0.3,0.1-0.4,0.2c-0.2,0.1-0.2,0.2-0.3,0.3l-15.1,25.8
			l-4.2-7.5c-0.1-0.2-0.2-0.2-0.4-0.4l-0.1-0.1h-0.1c-0.1,0-0.2-0.1-0.3-0.1l0,0c-0.2,0-0.2,0-0.3,0.1c-0.1,0-0.2,0-0.2,0.1
			c-0.2,0.1-0.2,0.2-0.4,0.4l-5.4,9.4c-0.2,0.3-0.2,0.6,0,0.8l10.4,18.3c0.1,0.2,0.2,0.2,0.4,0.4c0.1,0.1,0.1,0.1,0.2,0.1
			c0.1,0,0.2,0.1,0.2,0.1l0,0c0.1,0,0.2,0,0.2-0.1c0.1,0,0.1,0,0.2-0.1c0.2-0.1,0.2-0.2,0.4-0.4l26.7-46
			C600.9,30.7,600.9,30.3,600.7,30.1z M596.8,32.4l-23.4,40.3l-8.2-14.5l3.3-5.6l2.8,5c0.4,0.7,1.2,1.2,2.2,1.2
			c0.9,0,1.7-0.5,2.1-1.1l14.7-25.2L596.8,32.4L596.8,32.4z"/>
	</g>
</g>
<g id="Artwork_9_00000041974213215019890570000011483921226303524741_">
	<g>
		<g>
			<path class="st10" d="M82.7,54.6h194.9c4.4,0,8,3.6,8,8v41.1"/>
			<g>
				<polygon class="st11" points="293.6,102.6 277.5,102.6 285.6,110.6 				"/>
			</g>
		</g>
	</g>
</g>
<g id="Artwork_9_00000051360622573104923950000018084294677325819583_">
	<g>
		<g>
			<path class="st10" d="M89.6,273.3h188c4.4,0,8-3.6,8-8v-41.1"/>
			<g>
				<polygon class="st11" points="90.7,265.3 90.7,281.3 82.7,273.3 				"/>
			</g>
			<g>
				<polygon class="st11" points="277.5,225.3 293.6,225.3 285.6,217.3 				"/>
			</g>
		</g>
	</g>
</g>
<g id="Artwork_9_00000062879086477758590540000011548855692353196683_">
	<g>
		<g>
			<path class="st10" d="M519,273.3H331c-4.4,0-8-3.6-8-8v-48"/>
			<g>
				<polygon class="st11" points="517.9,281.3 517.9,265.3 525.9,273.3 				"/>
			</g>
		</g>
	</g>
</g>
<g id="Artwork_9_00000092429475785302241900000001637716229655994298_">
	<g>
		<g>
			<path class="st10" d="M519,54.6H331c-4.4,0-8,3.6-8,8v41.1"/>
			<g>
				<polygon class="st11" points="517.9,62.6 517.9,46.6 525.9,54.6 				"/>
			</g>
			<g>
				<polygon class="st11" points="331,102.6 315,102.6 323,110.6 				"/>
			</g>
		</g>
	</g>
</g>
<g>
	<circle class="st12" cx="114.5" cy="23.6" r="13.7"/>
	<g>
		<path d="M116.2,29.6H114v-8.7l-2.7,0.8v-1.8l4.7-1.7h0.2V29.6z"/>
	</g>
</g>
<g>
	<circle class="st12" cx="114.5" cy="304.4" r="13.7"/>
	<g>
		<path d="M116.4,306.1h1.3v1.8h-1.3v2.5h-2.3v-2.5h-4.7l-0.1-1.4l4.7-7.5h2.3V306.1z M111.6,306.1h2.5v-4l-0.1,0.3L111.6,306.1z"/>
	</g>
</g>
<g>
	<circle class="st12" cx="357.1" cy="23.6" r="13.7"/>
	<g>
		<path d="M361.1,29.6h-7.8V28l3.7-3.9c0.5-0.6,0.9-1,1.1-1.4c0.2-0.4,0.4-0.8,0.4-1.2c0-0.5-0.1-0.9-0.4-1.2
			c-0.3-0.3-0.6-0.4-1.1-0.4c-0.5,0-0.9,0.2-1.2,0.5c-0.3,0.4-0.4,0.8-0.4,1.4h-2.3c0-0.7,0.2-1.3,0.5-1.9c0.3-0.6,0.8-1,1.4-1.3
			c0.6-0.3,1.3-0.5,2.1-0.5c1.2,0,2.1,0.3,2.7,0.8s1,1.4,1,2.4c0,0.6-0.1,1.1-0.4,1.7c-0.3,0.6-0.8,1.3-1.5,2l-2.6,2.7h4.9V29.6z"/>
	</g>
</g>
<g>
	<circle class="st12" cx="357.1" cy="85.6" r="13.7"/>
	<g>
		<path d="M355.6,84.9h1.2c0.6,0,1-0.1,1.3-0.4c0.3-0.3,0.4-0.7,0.4-1.1c0-0.5-0.1-0.8-0.4-1.1c-0.3-0.3-0.7-0.4-1.1-0.4
			c-0.4,0-0.8,0.1-1.1,0.4c-0.3,0.2-0.4,0.5-0.4,0.9h-2.3c0-0.6,0.2-1.1,0.5-1.6c0.3-0.5,0.8-0.8,1.3-1.1c0.6-0.3,1.2-0.4,1.9-0.4
			c1.2,0,2.1,0.3,2.8,0.9c0.7,0.6,1,1.4,1,2.4c0,0.5-0.2,1-0.5,1.4c-0.3,0.4-0.7,0.8-1.2,1c0.6,0.2,1.1,0.6,1.4,1
			c0.3,0.5,0.5,1,0.5,1.6c0,1-0.4,1.8-1.1,2.4c-0.7,0.6-1.7,0.9-2.9,0.9c-1.1,0-2.1-0.3-2.8-0.9c-0.7-0.6-1.1-1.4-1.1-2.4h2.3
			c0,0.4,0.2,0.8,0.5,1c0.3,0.3,0.7,0.4,1.2,0.4c0.5,0,1-0.1,1.3-0.4c0.3-0.3,0.5-0.7,0.5-1.1c0-1.1-0.6-1.7-1.9-1.7h-1.2V84.9z"/>
	</g>
</g>
<g>
	<circle class="st12" cx="357.1" cy="304.4" r="13.7"/>
	<g>
		<path d="M353.6,304.7l0.7-5.8h6.4v1.9h-4.5l-0.3,2.4c0.5-0.3,1.1-0.4,1.7-0.4c1.1,0,1.9,0.3,2.5,1c0.6,0.7,0.9,1.6,0.9,2.8
			c0,0.7-0.2,1.4-0.5,2c-0.3,0.6-0.8,1-1.3,1.4s-1.3,0.5-2,0.5c-0.7,0-1.3-0.1-1.9-0.4c-0.6-0.3-1.1-0.7-1.4-1.2
			c-0.3-0.5-0.5-1.1-0.5-1.7h2.2c0,0.5,0.2,0.8,0.5,1.1c0.3,0.3,0.7,0.4,1.1,0.4c0.5,0,0.9-0.2,1.2-0.6c0.3-0.4,0.4-0.9,0.4-1.6
			c0-0.6-0.2-1.1-0.5-1.5c-0.3-0.3-0.8-0.5-1.4-0.5c-0.5,0-1,0.1-1.3,0.4l-0.2,0.2L353.6,304.7z"/>
	</g>
</g>
<g>
	<rect x="138.9" y="17.3" class="st13" width="158.5" height="16.8"/>
	<path class="st14" d="M145.2,20.6c-0.4-0.8-1-1.2-1.9-1.2c-1,0-1.9,0.7-1.9,1.8c0,1,1,1.4,1.8,1.8l0.8,0.3c1.5,0.6,2.7,1.4,2.7,3.2
		c0,2-1.6,3.5-3.6,3.5c-1.8,0-3.2-1.2-3.5-2.9l1.2-0.3c0.2,1.2,1,2.1,2.3,2.1s2.3-0.9,2.3-2.2c0-1.3-1-1.8-2.1-2.2l-0.7-0.3
		c-1.3-0.6-2.5-1.3-2.5-2.9c0-1.8,1.5-2.9,3.2-2.9c1.3,0,2.3,0.6,2.9,1.8L145.2,20.6z"/>
	<path class="st14" d="M150.2,26.6c0,1.2,0.1,2.2,1.6,2.2s1.6-1,1.6-2.2v-3.9h1.2v4.1c0,1.9-0.7,3.2-2.8,3.2s-2.8-1.3-2.8-3.2v-4.1
		h1.2V26.6z"/>
	<path class="st14" d="M157.3,17.3h1.2v6.3h0c0.6-0.8,1.5-1.2,2.4-1.2c2.1,0,3.4,1.7,3.4,3.7c0,2-1.3,3.7-3.4,3.7
		c-1,0-1.9-0.4-2.4-1.2h0v1h-1.2V17.3z M158.4,26.1c0,1.4,0.8,2.7,2.3,2.7c1.5,0,2.4-1.2,2.4-2.7c0-1.4-0.9-2.5-2.4-2.5
		C159.3,23.6,158.4,24.8,158.4,26.1z"/>
	<path class="st14" d="M167.8,23.4L167.8,23.4c0.4-0.6,1-1,1.7-1c0.8,0,1.6,0.4,1.9,1.2c0.4-0.8,1.3-1.2,2.1-1.2
		c1.8,0,2.2,1.5,2.2,3v4.3h-1.2v-4.1c0-0.9-0.1-2-1.3-2c-1.4,0-1.5,1.3-1.5,2.4v3.7h-1.2v-4c0-0.9-0.1-2.1-1.3-2.1
		c-1.4,0-1.6,1.4-1.6,2.5v3.6h-1.2v-7h1.2V23.4z"/>
	<path class="st14" d="M180.2,20c0,0.5-0.4,0.9-0.9,0.9s-0.9-0.4-0.9-0.9c0-0.5,0.4-0.9,0.9-0.9S180.2,19.5,180.2,20z M180,29.7
		h-1.2v-7h1.2V29.7z"/>
	<path class="st14" d="M184.2,29.7H183v-5.9h-0.7v-1.1h0.7v-2.5h1.2v2.5h1.3v1.1h-1.3V29.7z"/>
	<path class="st14" d="M201.3,20.9c-0.9-0.9-2.1-1.5-3.4-1.5c-2.5,0-4.6,2.2-4.6,4.7s2.1,4.7,4.6,4.7c1.3,0,2.5-0.6,3.4-1.5v1.6
		c-1,0.7-2.2,1.1-3.4,1.1c-3.2,0-5.9-2.6-5.9-5.8c0-3.2,2.7-5.9,5.9-5.9c1.3,0,2.4,0.4,3.4,1.1V20.9z"/>
	<path class="st14" d="M203.3,26.2c0-2.1,1.6-3.7,3.7-3.7s3.7,1.7,3.7,3.7s-1.6,3.7-3.7,3.7C204.9,29.9,203.3,28.3,203.3,26.2z
		 M204.5,26.2c0,1.4,1,2.6,2.5,2.6s2.5-1.2,2.5-2.6c0-1.4-1-2.6-2.5-2.6S204.5,24.8,204.5,26.2z"/>
	<path class="st14" d="M218.3,28.7L218.3,28.7c-0.6,0.8-1.5,1.2-2.5,1.2c-2.1,0-3.4-1.8-3.4-3.7c0-2,1.3-3.7,3.4-3.7
		c0.9,0,1.8,0.4,2.4,1.2h0v-6.3h1.2v12.4h-1.2V28.7z M213.7,26.1c0,1.4,0.8,2.7,2.3,2.7c1.5,0,2.4-1.2,2.4-2.7
		c0-1.4-0.9-2.5-2.4-2.5C214.6,23.6,213.7,24.8,213.7,26.1z"/>
	<path class="st14" d="M223,26.4c0,1.3,0.9,2.4,2.3,2.4c1,0,1.7-0.6,2.1-1.5l1,0.6c-0.7,1.3-1.8,2-3.3,2c-2.1,0-3.5-1.6-3.5-3.6
		c0-2.1,1.2-3.8,3.4-3.8c2.3,0,3.5,1.9,3.3,4H223z M227.3,25.4c-0.2-1-1-1.8-2.1-1.8c-1,0-2,0.8-2.1,1.8H227.3z"/>
	<path class="st14" d="M245,20.9c-0.9-0.9-2.1-1.5-3.4-1.5c-2.5,0-4.6,2.2-4.6,4.7s2.1,4.7,4.6,4.7c1.3,0,2.5-0.6,3.4-1.5v1.6
		c-1,0.7-2.2,1.1-3.4,1.1c-3.2,0-5.9-2.6-5.9-5.8c0-3.2,2.7-5.9,5.9-5.9c1.3,0,2.4,0.4,3.4,1.1V20.9z"/>
	<path class="st14" d="M248.7,17.3v6.1l0,0c0.5-0.7,1.1-1,2-1c1.9,0,2.4,1.4,2.4,3.1v4.2h-1.2v-4c0-1.1-0.1-2.2-1.5-2.2
		c-1.6,0-1.8,1.5-1.8,2.8v3.3h-1.2V17.3H248.7z"/>
	<path class="st14" d="M262.4,29.7h-1.2v-1h0c-0.6,0.8-1.4,1.2-2.4,1.2c-2.1,0-3.4-1.8-3.4-3.7c0-2,1.3-3.7,3.4-3.7
		c1,0,1.8,0.4,2.4,1.2h0v-1h1.2V29.7z M256.6,26.1c0,1.4,0.8,2.7,2.3,2.7c1.5,0,2.4-1.2,2.4-2.7c0-1.4-0.9-2.5-2.4-2.5
		C257.5,23.6,256.6,24.8,256.6,26.1z"/>
	<path class="st14" d="M266.4,23.5L266.4,23.5c0.5-0.7,1.2-1,2-1c1.9,0,2.4,1.4,2.4,3.1v4.2h-1.2v-4c0-1.1-0.1-2.2-1.5-2.2
		c-1.6,0-1.8,1.5-1.8,2.8v3.3h-1.2v-7h1.2V23.5z"/>
	<path class="st14" d="M280.1,29.4c0,1.1,0,2.1-0.7,3c-0.7,0.8-1.7,1.2-2.7,1.2c-2,0-3.4-1.2-3.5-3.2h1.2c0,1.3,1,2.1,2.2,2.1
		c1.9,0,2.3-1.4,2.3-3v-0.8h0c-0.6,0.7-1.5,1.2-2.4,1.2c-2.1,0-3.4-1.7-3.4-3.7c0-2,1.3-3.8,3.4-3.8c1,0,1.8,0.4,2.4,1.2h0v-1h1.2
		V29.4z M274.3,26.1c0,1.4,0.8,2.7,2.3,2.7c1.5,0,2.4-1.2,2.4-2.7c0-1.4-0.9-2.5-2.4-2.5C275.2,23.6,274.3,24.8,274.3,26.1z"/>
	<path class="st14" d="M283.7,26.4c0,1.3,0.9,2.4,2.3,2.4c1,0,1.7-0.6,2.1-1.5l1,0.6c-0.7,1.3-1.8,2-3.3,2c-2.1,0-3.5-1.6-3.5-3.6
		c0-2.1,1.2-3.8,3.4-3.8c2.3,0,3.5,1.9,3.3,4H283.7z M288,25.4c-0.2-1-1-1.8-2.1-1.8c-1,0-2,0.8-2.1,1.8H288z"/>
</g>
<g>
	<rect x="135.6" y="298" class="st13" width="154.5" height="16.8"/>
	<path class="st14" d="M138,310.3h-1.3V299h1.6c2.1,0,4.1,0.6,4.1,3.1c0,1.7-1.1,3-2.8,3.1l3.6,5.1h-1.5l-3.4-5H138V310.3z
		 M138,304.3h0.4c1.4,0,2.9-0.3,2.9-2c0-1.9-1.4-2-2.9-2H138V304.3z"/>
	<path class="st14" d="M145.8,307.1c0,1.3,0.9,2.4,2.3,2.4c1,0,1.7-0.6,2.1-1.5l1,0.6c-0.7,1.3-1.8,2-3.3,2c-2.1,0-3.5-1.6-3.5-3.6
		c0-2.1,1.2-3.8,3.4-3.8c2.3,0,3.5,1.9,3.3,4H145.8z M150,306.1c-0.2-1-1-1.8-2.1-1.8c-1,0-2,0.8-2.1,1.8H150z"/>
	<path class="st14" d="M155.8,308l2.1-4.7h1.4l-3.4,7.5l-3.5-7.5h1.4L155.8,308z"/>
	<path class="st14" d="M162.6,300.6c0,0.5-0.4,0.9-0.9,0.9s-0.9-0.4-0.9-0.9c0-0.5,0.4-0.9,0.9-0.9S162.6,300.2,162.6,300.6z
		 M162.3,310.3h-1.2v-7h1.2V310.3z"/>
	<path class="st14" d="M166,307.1c0,1.3,0.9,2.4,2.3,2.4c1,0,1.7-0.6,2.1-1.5l1,0.6c-0.7,1.3-1.8,2-3.3,2c-2.1,0-3.5-1.6-3.5-3.6
		c0-2.1,1.2-3.8,3.4-3.8c2.3,0,3.5,1.9,3.3,4H166z M170.2,306.1c-0.2-1-1-1.8-2.1-1.8c-1,0-2,0.8-2.1,1.8H170.2z"/>
	<path class="st14" d="M176,308.1l2.2-5.3l2.2,5.3l2.1-4.8h1.4l-3.5,7.5l-2.2-5.2l-2.2,5.2l-3.5-7.5h1.4L176,308.1z"/>
	<path class="st14" d="M197.6,310.3h-1.2v-1h0c-0.6,0.8-1.4,1.2-2.4,1.2c-2.1,0-3.4-1.8-3.4-3.7c0-2,1.3-3.7,3.4-3.7
		c1,0,1.8,0.5,2.4,1.2h0v-1h1.2V310.3z M191.8,306.7c0,1.4,0.8,2.7,2.3,2.7c1.5,0,2.4-1.2,2.4-2.7c0-1.4-0.9-2.5-2.4-2.5
		C192.7,304.2,191.8,305.4,191.8,306.7z"/>
	<path class="st14" d="M201.6,304.2L201.6,304.2c0.5-0.7,1.2-1,2-1c1.9,0,2.4,1.4,2.4,3.1v4.2h-1.2v-4c0-1.1-0.1-2.2-1.5-2.2
		c-1.6,0-1.8,1.5-1.8,2.8v3.3h-1.2v-7h1.2V304.2z"/>
	<path class="st14" d="M214.1,309.4L214.1,309.4c-0.6,0.8-1.5,1.2-2.5,1.2c-2.1,0-3.4-1.8-3.4-3.7c0-2,1.3-3.7,3.4-3.7
		c0.9,0,1.8,0.5,2.4,1.2h0V298h1.2v12.4h-1.2V309.4z M209.5,306.7c0,1.4,0.8,2.7,2.3,2.7c1.5,0,2.4-1.2,2.4-2.7
		c0-1.4-0.9-2.5-2.4-2.5C210.4,304.2,209.5,305.4,209.5,306.7z"/>
	<path class="st14" d="M225.4,307.1l-1.4,3.2h-1.4l5.2-11.8l5.1,11.8h-1.4l-1.3-3.2H225.4z M227.8,301.4l-1.9,4.5h3.8L227.8,301.4z"
		/>
	<path class="st14" d="M236,304.3L236,304.3c0.6-0.8,1.5-1.2,2.5-1.2c2.1,0,3.4,1.8,3.4,3.7c0,2-1.3,3.7-3.4,3.7
		c-1,0-1.8-0.4-2.4-1.2h0v5h-1.2v-11h1.2V304.3z M235.9,306.7c0,1.4,0.8,2.7,2.3,2.7c1.5,0,2.4-1.2,2.4-2.7c0-1.4-0.9-2.5-2.4-2.5
		C236.8,304.2,235.9,305.4,235.9,306.7z"/>
	<path class="st14" d="M245.3,304.3L245.3,304.3c0.6-0.8,1.5-1.2,2.5-1.2c2.1,0,3.4,1.8,3.4,3.7c0,2-1.3,3.7-3.4,3.7
		c-1,0-1.8-0.4-2.4-1.2h0v5h-1.2v-11h1.2V304.3z M245.3,306.7c0,1.4,0.8,2.7,2.3,2.7c1.5,0,2.4-1.2,2.4-2.7c0-1.4-0.9-2.5-2.4-2.5
		C246.2,304.2,245.3,305.4,245.3,306.7z"/>
	<path class="st14" d="M254.6,304.1L254.6,304.1c0.5-0.6,0.8-1,1.6-1c0.4,0,0.7,0.1,1.1,0.3l-0.6,1.1c-0.2-0.2-0.4-0.3-0.7-0.3
		c-1.3,0-1.4,1.7-1.4,2.6v3.5h-1.2v-7h1.2V304.1z"/>
	<path class="st14" d="M258.3,306.8c0-2.1,1.6-3.7,3.7-3.7s3.7,1.7,3.7,3.7c0,2.1-1.6,3.7-3.7,3.7
		C259.9,310.5,258.3,308.9,258.3,306.8z M259.5,306.8c0,1.4,1,2.6,2.5,2.6s2.5-1.2,2.5-2.6c0-1.4-1-2.6-2.5-2.6
		S259.5,305.4,259.5,306.8z"/>
	<path class="st14" d="M270.1,308l2.1-4.7h1.4l-3.4,7.5l-3.5-7.5h1.4L270.1,308z"/>
	<path class="st14" d="M275.7,307.1c0,1.3,0.9,2.4,2.3,2.4c1,0,1.7-0.6,2.1-1.5l1,0.6c-0.7,1.3-1.8,2-3.3,2c-2.1,0-3.5-1.6-3.5-3.6
		c0-2.1,1.2-3.8,3.4-3.8c2.3,0,3.5,1.9,3.3,4H275.7z M280,306.1c-0.2-1-1-1.8-2.1-1.8c-1,0-2,0.8-2.1,1.8H280z"/>
</g>
<g>
	<rect x="380.4" y="298" class="st13" width="154.5" height="16.8"/>
	<path class="st14" d="M390.2,301.5c-0.9-0.9-2.1-1.5-3.5-1.5c-2.5,0-4.6,2.2-4.6,4.7c0,2.5,2.1,4.7,4.6,4.7c1.3,0,2.5-0.6,3.4-1.5
		v1.6c-1,0.7-2.2,1.1-3.4,1.1c-3.2,0-5.9-2.6-5.9-5.8c0-3.2,2.7-5.9,5.9-5.9c1.3,0,2.4,0.4,3.4,1.1V301.5z"/>
	<path class="st14" d="M392.2,306.8c0-2.1,1.6-3.7,3.7-3.7c2.1,0,3.7,1.7,3.7,3.7c0,2.1-1.7,3.7-3.7,3.7S392.2,308.9,392.2,306.8z
		 M393.4,306.8c0,1.4,1,2.6,2.5,2.6c1.5,0,2.5-1.2,2.5-2.6c0-1.4-1-2.6-2.5-2.6C394.4,304.2,393.4,305.4,393.4,306.8z"/>
	<path class="st14" d="M403.1,304.1L403.1,304.1c0.4-0.6,1-1,1.7-1c0.8,0,1.6,0.4,2,1.2c0.4-0.8,1.3-1.2,2.1-1.2
		c1.8,0,2.2,1.5,2.2,3v4.3h-1.2v-4.1c0-0.9-0.1-2-1.3-2c-1.4,0-1.5,1.3-1.5,2.4v3.7h-1.2v-4c0-0.9-0.1-2.1-1.3-2.1
		c-1.4,0-1.6,1.4-1.6,2.5v3.6h-1.2v-7h1.2V304.1z"/>
	<path class="st14" d="M415.1,304.1L415.1,304.1c0.4-0.6,1-1,1.7-1c0.8,0,1.6,0.4,1.9,1.2c0.4-0.8,1.3-1.2,2.1-1.2
		c1.8,0,2.2,1.5,2.2,3v4.3H422v-4.1c0-0.9-0.1-2-1.3-2c-1.4,0-1.5,1.3-1.5,2.4v3.7H418v-4c0-0.9-0.1-2.1-1.3-2.1
		c-1.4,0-1.6,1.4-1.6,2.5v3.6h-1.2v-7h1.2V304.1z"/>
	<path class="st14" d="M427.5,300.6c0,0.5-0.4,0.9-0.9,0.9s-0.9-0.4-0.9-0.9c0-0.5,0.4-0.9,0.9-0.9S427.5,300.2,427.5,300.6z
		 M427.3,310.3h-1.2v-7h1.2V310.3z"/>
	<path class="st14" d="M431.5,310.3h-1.2v-5.9h-0.7v-1.1h0.7v-2.5h1.2v2.5h1.3v1.1h-1.3V310.3z"/>
</g>
<g>
	<rect x="380.4" y="17.3" class="st13" width="130" height="16.8"/>
	<path class="st14" d="M383.3,26.5l-1.4,3.2h-1.4l5.2-11.8l5.1,11.8h-1.4l-1.3-3.2H383.3z M385.7,20.8l-1.9,4.5h3.8L385.7,20.8z"/>
	<path class="st14" d="M393.9,23.5L393.9,23.5c0.5-0.7,1.2-1,2-1c2,0,2.4,1.4,2.4,3.1v4.2h-1.2v-4c0-1.1-0.1-2.2-1.5-2.2
		c-1.6,0-1.8,1.5-1.8,2.8v3.3h-1.2v-7h1.2V23.5z"/>
	<path class="st14" d="M407.7,29.7h-1.2v-1h0c-0.6,0.8-1.4,1.2-2.4,1.2c-2.1,0-3.4-1.8-3.4-3.7c0-2,1.3-3.7,3.4-3.7
		c1,0,1.8,0.4,2.4,1.2h0v-1h1.2V29.7z M401.9,26.1c0,1.4,0.8,2.7,2.3,2.7c1.5,0,2.4-1.2,2.4-2.7c0-1.4-0.9-2.5-2.4-2.5
		C402.8,23.6,401.9,24.8,401.9,26.1z"/>
	<path class="st14" d="M411.7,29.7h-1.2V17.3h1.2V29.7z"/>
	<path class="st14" d="M413.4,22.7h1.4l2.5,5.1l2.3-5.1h1.4l-5.2,11h-1.4l2.3-4.6L413.4,22.7z"/>
	<path class="st14" d="M429.1,28.6v1.1h-7.3l5.1-5.9h-4.1v-1.1h6.6l-5.1,5.9H429.1z"/>
	<path class="st14" d="M431.7,26.4c0,1.3,0.9,2.4,2.3,2.4c1,0,1.7-0.6,2.1-1.5l1,0.6c-0.7,1.3-1.8,2-3.3,2c-2.1,0-3.5-1.6-3.5-3.6
		c0-2.1,1.2-3.8,3.4-3.8c2.3,0,3.5,1.9,3.3,4H431.7z M436,25.4c-0.2-1-1-1.8-2.1-1.8c-1,0-2,0.8-2.1,1.8H436z"/>
	<path class="st14" d="M453.6,20.9c-0.9-0.9-2.1-1.5-3.4-1.5c-2.5,0-4.6,2.2-4.6,4.7s2.1,4.7,4.6,4.7c1.3,0,2.5-0.6,3.4-1.5v1.6
		c-1,0.7-2.2,1.1-3.4,1.1c-3.2,0-5.9-2.6-5.9-5.8c0-3.2,2.7-5.9,5.9-5.9c1.3,0,2.4,0.4,3.4,1.1V20.9z"/>
	<path class="st14" d="M455.6,26.2c0-2.1,1.6-3.7,3.7-3.7c2.1,0,3.7,1.7,3.7,3.7s-1.7,3.7-3.7,3.7S455.6,28.3,455.6,26.2z
		 M456.8,26.2c0,1.4,1,2.6,2.5,2.6c1.5,0,2.5-1.2,2.5-2.6c0-1.4-1-2.6-2.5-2.6C457.8,23.6,456.8,24.8,456.8,26.2z"/>
	<path class="st14" d="M470.7,28.7L470.7,28.7c-0.6,0.8-1.5,1.2-2.5,1.2c-2.1,0-3.4-1.8-3.4-3.7c0-2,1.3-3.7,3.4-3.7
		c0.9,0,1.8,0.4,2.4,1.2h0v-6.3h1.2v12.4h-1.2V28.7z M466.1,26.1c0,1.4,0.8,2.7,2.3,2.7c1.5,0,2.4-1.2,2.4-2.7
		c0-1.4-0.9-2.5-2.4-2.5C467,23.6,466.1,24.8,466.1,26.1z"/>
	<path class="st14" d="M475.4,26.4c0,1.3,0.9,2.4,2.3,2.4c1,0,1.7-0.6,2.1-1.5l1,0.6c-0.7,1.3-1.8,2-3.3,2c-2.1,0-3.5-1.6-3.5-3.6
		c0-2.1,1.2-3.8,3.4-3.8c2.3,0,3.5,1.9,3.3,4H475.4z M479.7,25.4c-0.2-1-1-1.8-2.1-1.8c-1,0-2,0.8-2.1,1.8H479.7z"/>
</g>
<g>
	<rect x="240" y="186.1" class="st13" width="130" height="16.7"/>
	<path class="st14" d="M251.4,190.6c-0.6-0.8-1.5-1.2-2.5-1.2c-2.1,0-3.3,2-3.3,3.9c0,1.9,1.3,3.8,3.3,3.8c0.9,0,1.9-0.5,2.5-1.2
		v2.6c-0.8,0.4-1.6,0.7-2.6,0.7c-3.2,0-5.5-2.7-5.5-5.9c0-3.2,2.3-6,5.6-6c0.9,0,1.8,0.2,2.5,0.7V190.6z"/>
	<path class="st14" d="M260.6,195.2c0,2.3-1.6,3.9-3.9,3.9s-3.9-1.6-3.9-3.9c0-2.3,1.6-3.9,3.9-3.9S260.6,192.9,260.6,195.2z
		 M254.9,195.2c0,1,0.7,2.1,1.7,2.1s1.7-1.1,1.7-2.1c0-1-0.7-2.1-1.7-2.1S254.9,194.2,254.9,195.2z"/>
	<path class="st14" d="M267.2,198.2L267.2,198.2c-0.5,0.6-1.2,0.9-2,0.9c-2.2,0-3.4-2-3.4-4c0-2,1.2-3.9,3.4-3.9
		c0.8,0,1.5,0.3,2,0.9h0v-6h2.1v12.7h-2.1V198.2z M267.4,195.2c0-1-0.7-2.1-1.7-2.1s-1.7,1.1-1.7,2.1c0,1,0.7,2.1,1.7,2.1
		S267.4,196.2,267.4,195.2z"/>
	<path class="st14" d="M273.1,195.5c0,0.9,0.4,2,1.5,2c0.7,0,1.1-0.4,1.4-1l1.9,0.3c-0.5,1.5-1.8,2.3-3.3,2.3
		c-2.3,0-3.7-1.6-3.7-3.9c0-2.2,1.2-4,3.6-4c2.4,0,3.5,1.8,3.5,4v0.3H273.1z M276,194.2c-0.1-0.8-0.6-1.5-1.4-1.5
		c-0.8,0-1.3,0.7-1.4,1.5H276z"/>
	<path class="st14" d="M292.5,198.9h-2.7l-2.7-4.6h0v4.6h-2.2v-11.3h3c2.2,0,3.8,1,3.8,3.4c0,1.4-0.8,2.9-2.3,3.1L292.5,198.9z
		 M287.1,192.8h0.3c1.2,0,2.1-0.4,2.1-1.7c0-1.4-0.9-1.7-2.1-1.7h-0.3V192.8z"/>
	<path class="st14" d="M295.2,195.5c0,0.9,0.4,2,1.5,2c0.7,0,1.1-0.4,1.4-1l1.9,0.3c-0.5,1.5-1.8,2.3-3.3,2.3
		c-2.3,0-3.7-1.6-3.7-3.9c0-2.2,1.2-4,3.6-4c2.4,0,3.5,1.8,3.5,4v0.3H295.2z M298.1,194.2c-0.1-0.8-0.6-1.5-1.4-1.5
		c-0.8,0-1.3,0.7-1.4,1.5H298.1z"/>
	<path class="st14" d="M304.6,195.7l1.5-4.2h2.3L305,199h-1.1l-3.4-7.5h2.3L304.6,195.7z"/>
	<path class="st14" d="M312,188.4c0,0.7-0.6,1.2-1.2,1.2s-1.2-0.6-1.2-1.2c0-0.7,0.6-1.2,1.2-1.2S312,187.7,312,188.4z M311.8,198.9
		h-2.1v-7.4h2.1V198.9z"/>
	<path class="st14" d="M315.6,195.5c0,0.9,0.4,2,1.5,2c0.7,0,1.1-0.4,1.4-1l1.9,0.3c-0.5,1.5-1.8,2.3-3.3,2.3
		c-2.3,0-3.7-1.6-3.7-3.9c0-2.2,1.2-4,3.6-4c2.4,0,3.5,1.8,3.5,4v0.3H315.6z M318.5,194.2c-0.1-0.8-0.6-1.5-1.4-1.5
		c-0.8,0-1.3,0.7-1.4,1.5H318.5z"/>
	<path class="st14" d="M324.8,195.7l1.8-4.5h1l1.8,4.5l1.6-4.3h2.3l-3.4,7.5h-1.1l-1.6-4.5l-1.8,4.5h-1.1l-3.4-7.5h2.3L324.8,195.7z
		"/>
	<path class="st14" d="M343.3,198.9h-2.2v-9.4h-2.3v-1.9h6.8v1.9h-2.3V198.9z"/>
	<path class="st14" d="M353.4,195.2c0,2.3-1.6,3.9-3.9,3.9c-2.3,0-3.9-1.6-3.9-3.9c0-2.3,1.6-3.9,3.9-3.9S353.4,192.9,353.4,195.2z
		 M347.8,195.2c0,1,0.7,2.1,1.7,2.1s1.7-1.1,1.7-2.1c0-1-0.7-2.1-1.7-2.1S347.8,194.2,347.8,195.2z"/>
	<path class="st14" d="M362.4,195.2c0,2.3-1.6,3.9-3.9,3.9c-2.3,0-3.9-1.6-3.9-3.9c0-2.3,1.6-3.9,3.9-3.9S362.4,192.9,362.4,195.2z
		 M356.8,195.2c0,1,0.7,2.1,1.7,2.1s1.7-1.1,1.7-2.1c0-1-0.7-2.1-1.7-2.1S356.8,194.2,356.8,195.2z"/>
	<path class="st14" d="M366.2,198.9h-2.1v-12.7h2.1V198.9z"/>
</g>
<g>
	<rect x="380.4" y="78.2" class="st13" width="130" height="16.8"/>
	<path class="st14" d="M383.3,87.4l-1.4,3.2h-1.4l5.2-11.8l5.1,11.8h-1.4l-1.3-3.2H383.3z M385.7,81.7l-1.9,4.5h3.8L385.7,81.7z"/>
	<path class="st14" d="M393.9,84.4L393.9,84.4c0.5-0.7,1.2-1,2-1c2,0,2.4,1.4,2.4,3.1v4.2h-1.2v-4c0-1.1-0.1-2.2-1.5-2.2
		c-1.6,0-1.8,1.5-1.8,2.8v3.3h-1.2v-7h1.2V84.4z"/>
	<path class="st14" d="M407.7,90.6h-1.2v-1h0c-0.6,0.8-1.4,1.2-2.4,1.2c-2.1,0-3.4-1.8-3.4-3.7c0-2,1.3-3.7,3.4-3.7
		c1,0,1.8,0.4,2.4,1.2h0v-1h1.2V90.6z M401.9,87c0,1.4,0.8,2.7,2.3,2.7c1.5,0,2.4-1.2,2.4-2.7c0-1.4-0.9-2.5-2.4-2.5
		C402.8,84.4,401.9,85.6,401.9,87z"/>
	<path class="st14" d="M411.7,90.6h-1.2V78.2h1.2V90.6z"/>
	<path class="st14" d="M413.4,83.5h1.4l2.5,5.1l2.3-5.1h1.4l-5.2,11h-1.4l2.3-4.6L413.4,83.5z"/>
	<path class="st14" d="M429.1,89.5v1.1h-7.3l5.1-5.9h-4.1v-1.1h6.6l-5.1,5.9H429.1z"/>
	<path class="st14" d="M431.7,87.3c0,1.3,0.9,2.4,2.3,2.4c1,0,1.7-0.6,2.1-1.5l1,0.6c-0.7,1.3-1.8,2-3.3,2c-2.1,0-3.5-1.6-3.5-3.6
		c0-2.1,1.2-3.8,3.4-3.8c2.3,0,3.5,1.9,3.3,4H431.7z M436,86.3c-0.2-1-1-1.8-2.1-1.8c-1,0-2,0.8-2.1,1.8H436z"/>
	<path class="st14" d="M446.3,90.6H445V79.3h1.6c2.1,0,4.1,0.6,4.1,3.1c0,1.7-1.1,3-2.8,3.1l3.6,5.1H450l-3.4-5h-0.3V90.6z
		 M446.3,84.5h0.4c1.4,0,2.9-0.3,2.9-2c0-1.9-1.4-2-2.9-2h-0.4V84.5z"/>
	<path class="st14" d="M454,87.3c0,1.3,0.9,2.4,2.3,2.4c1,0,1.7-0.6,2.1-1.5l1,0.6c-0.7,1.3-1.8,2-3.3,2c-2.1,0-3.5-1.6-3.5-3.6
		c0-2.1,1.2-3.8,3.4-3.8c2.3,0,3.5,1.9,3.3,4H454z M458.3,86.3c-0.2-1-1-1.8-2.1-1.8c-1,0-2,0.8-2.1,1.8H458.3z"/>
	<path class="st14" d="M464.8,85.2c-0.2-0.4-0.5-0.7-1-0.7c-0.4,0-0.9,0.3-0.9,0.8c0,0.6,0.8,0.9,1.6,1.2c0.8,0.3,1.6,0.8,1.6,2
		c0,1.3-1.1,2.3-2.4,2.3c-1.2,0-2.1-0.7-2.5-1.8l1.1-0.5c0.3,0.7,0.6,1.1,1.4,1.1c0.6,0,1.1-0.4,1.1-1.1c0-1.6-3.2-1-3.2-3.3
		c0-1.2,1-2,2.1-2c0.8,0,1.6,0.6,1.9,1.3L464.8,85.2z"/>
	<path class="st14" d="M469.5,87.4c0,1.2,0.1,2.2,1.6,2.2s1.6-1,1.6-2.2v-3.9h1.2v4.1c0,1.9-0.7,3.2-2.8,3.2s-2.8-1.3-2.8-3.2v-4.1
		h1.2V87.4z"/>
	<path class="st14" d="M477.9,90.6h-1.2V78.2h1.2V90.6z"/>
	<path class="st14" d="M482,90.6h-1.2v-5.9h-0.7v-1.1h0.7V81h1.2v2.5h1.3v1.1H482V90.6z"/>
	<path class="st14" d="M487.9,85.2c-0.2-0.4-0.5-0.7-1-0.7c-0.4,0-0.9,0.3-0.9,0.8c0,0.6,0.8,0.9,1.6,1.2c0.8,0.3,1.6,0.8,1.6,2
		c0,1.3-1.1,2.3-2.4,2.3c-1.2,0-2.1-0.7-2.5-1.8l1.1-0.5c0.3,0.7,0.6,1.1,1.4,1.1c0.6,0,1.1-0.4,1.1-1.1c0-1.6-3.2-1-3.2-3.3
		c0-1.2,1-2,2.1-2c0.8,0,1.6,0.6,1.9,1.3L487.9,85.2z"/>
</g>
<g>
	<rect x="510.5" y="87.9" class="st13" width="130" height="16.7"/>
	<path class="st14" d="M543.8,100.7h-2.2V89.3h3c2.4,0,3.9,0.9,3.9,3.5c0,2.4-1.3,3.6-3.6,3.6h-1.1V100.7z M543.8,94.6h0.5
		c1.3,0,2-0.3,2-1.8c0-1.5-0.8-1.7-2.1-1.7h-0.4V94.6z"/>
	<path class="st14" d="M557.1,97c0,2.3-1.6,3.9-3.9,3.9c-2.3,0-3.9-1.6-3.9-3.9c0-2.3,1.6-3.9,3.9-3.9S557.1,94.7,557.1,97z
		 M551.5,97c0,1,0.7,2.1,1.7,2.1S555,98,555,97c0-1-0.7-2.1-1.7-2.1S551.5,96,551.5,97z"/>
	<path class="st14" d="M560.9,100.7h-2.1V87.9h2.1V100.7z"/>
	<path class="st14" d="M562.1,93.3h2.4l1.8,4.2l1.9-4.2h2.3l-5.4,11.3h-2.3l2.4-5.1L562.1,93.3z"/>
	<path class="st14" d="M575.1,95c-0.3-0.3-0.7-0.5-1.1-0.5c-0.3,0-0.7,0.3-0.7,0.6c0,0.5,0.8,0.7,1.5,1c0.8,0.3,1.5,0.8,1.5,2.1
		c0,1.6-1.3,2.6-2.9,2.6c-1,0-2-0.5-2.6-1.2l1-1.2c0.4,0.4,0.9,0.9,1.6,0.9c0.5,0,0.8-0.3,0.8-0.8c0-0.6-0.7-0.8-1.5-1.1
		c-0.7-0.3-1.5-0.8-1.5-1.9c0-1.4,1-2.4,2.3-2.4c0.8,0,1.8,0.2,2.4,0.8L575.1,95z"/>
	<path class="st14" d="M580.1,94c0.5-0.6,1.3-0.9,2-0.9c2.1,0,3.4,1.9,3.4,3.9c0,2-1.2,4-3.4,4c-0.8,0-1.5-0.3-2-0.9h0v4.6H578V93.3
		h2.1V94z M583.4,97c0-1-0.7-2.1-1.7-2.1s-1.7,1.1-1.7,2.1c0,1,0.7,2.1,1.7,2.1S583.4,98,583.4,97z"/>
	<path class="st14" d="M594.2,100.7h-2.1V100h0c-0.5,0.6-1.2,0.9-2,0.9c-2.2,0-3.4-2-3.4-4c0-2,1.2-3.9,3.4-3.9
		c0.8,0,1.5,0.3,2.1,0.9v-0.7h2.1V100.7z M592.4,97c0-1-0.7-2.1-1.8-2.1s-1.7,1.1-1.7,2.1c0,1,0.7,2.1,1.7,2.1S592.4,98,592.4,97z"
		/>
	<path class="st14" d="M601.4,95.5c-0.5-0.5-0.9-0.7-1.5-0.7c-1.2,0-1.9,1.1-1.9,2.2c0,1.2,0.7,2.1,1.9,2.1c0.6,0,1.1-0.3,1.5-0.7v2
		c-0.6,0.3-1.2,0.5-1.8,0.5c-2.2,0-3.7-1.8-3.7-3.9c0-2.2,1.6-3.9,3.8-3.9c0.6,0,1.2,0.1,1.7,0.5V95.5z"/>
	<path class="st14" d="M605,97.3c0,0.9,0.4,2,1.5,2c0.7,0,1.1-0.4,1.4-1l1.9,0.3c-0.5,1.5-1.8,2.3-3.3,2.3c-2.3,0-3.7-1.6-3.7-3.9
		s1.2-4,3.6-4c2.4,0,3.5,1.8,3.5,4v0.3H605z M607.9,96c-0.1-0.8-0.6-1.5-1.4-1.5c-0.8,0-1.3,0.7-1.4,1.5H607.9z"/>
</g>
<g>
	<rect x="-18.7" y="87.9" class="st13" width="130" height="16.7"/>
	<path class="st14" d="M11.9,89.3H15c3.3,0,5.5,2.4,5.5,5.7c0,3.2-2.2,5.6-5.5,5.6h-3.1V89.3z M14.1,98.7h0.4c2.7,0,3.8-1.5,3.8-3.7
		c0-2.5-1.3-3.7-3.8-3.7h-0.4V98.7z"/>
	<path class="st14" d="M23.9,97.3c0,0.9,0.4,2,1.5,2c0.7,0,1.1-0.4,1.4-1l1.9,0.3c-0.5,1.5-1.8,2.3-3.3,2.3c-2.3,0-3.7-1.6-3.7-3.9
		s1.2-4,3.6-4c2.4,0,3.5,1.8,3.5,4v0.3H23.9z M26.7,96c-0.1-0.8-0.6-1.5-1.4-1.5c-0.8,0-1.3,0.7-1.4,1.5H26.7z"/>
	<path class="st14" d="M33.2,97.4l1.5-4.2H37l-3.4,7.5h-1.1l-3.4-7.5h2.3L33.2,97.4z"/>
	<path class="st14" d="M39.7,97.3c0,0.9,0.4,2,1.5,2c0.7,0,1.1-0.4,1.4-1l1.9,0.3c-0.5,1.5-1.8,2.3-3.3,2.3c-2.3,0-3.7-1.6-3.7-3.9
		s1.2-4,3.6-4c2.4,0,3.5,1.8,3.5,4v0.3H39.7z M42.5,96c-0.1-0.8-0.6-1.5-1.4-1.5c-0.8,0-1.3,0.7-1.4,1.5H42.5z"/>
	<path class="st14" d="M48.3,100.7h-2.1V87.9h2.1V100.7z"/>
	<path class="st14" d="M57.7,97c0,2.3-1.6,3.9-3.9,3.9s-3.9-1.6-3.9-3.9c0-2.3,1.6-3.9,3.9-3.9S57.7,94.7,57.7,97z M52.1,97
		c0,1,0.7,2.1,1.7,2.1s1.7-1.1,1.7-2.1c0-1-0.7-2.1-1.7-2.1S52.1,96,52.1,97z"/>
	<path class="st14" d="M61.4,94c0.5-0.6,1.3-0.9,2-0.9c2.1,0,3.4,1.9,3.4,3.9c0,2-1.2,4-3.4,4c-0.8,0-1.5-0.3-2-0.9h0v4.6h-2.1V93.3
		h2.1V94z M64.7,97c0-1-0.7-2.1-1.7-2.1S61.2,96,61.2,97c0,1,0.7,2.1,1.7,2.1S64.7,98,64.7,97z"/>
	<path class="st14" d="M70.3,97.3c0,0.9,0.4,2,1.5,2c0.7,0,1.1-0.4,1.4-1l1.9,0.3c-0.5,1.5-1.8,2.3-3.3,2.3c-2.3,0-3.7-1.6-3.7-3.9
		s1.2-4,3.6-4c2.4,0,3.5,1.8,3.5,4v0.3H70.3z M73.1,96c-0.1-0.8-0.6-1.5-1.4-1.5c-0.8,0-1.3,0.7-1.4,1.5H73.1z"/>
	<path class="st14" d="M78.9,94.1L78.9,94.1c0.4-0.6,1.1-1,1.9-1c0.3,0,0.6,0.1,0.9,0.2l-0.3,2c-0.3-0.2-0.6-0.3-0.9-0.3
		c-1.5,0-1.6,1.3-1.6,2.4v3.3h-2.1v-7.4h2.1V94.1z"/>
</g>
<g>
	<rect x="-18.7" y="305.2" class="st13" width="130" height="16.7"/>
	<path class="st14" d="M19.9,317.9h-2.7l-2.7-4.6h0v4.6h-2.2v-11.3h3c2.2,0,3.8,1,3.8,3.4c0,1.4-0.8,2.9-2.3,3.1L19.9,317.9z
		 M14.4,311.8h0.3c1.2,0,2.1-0.4,2.1-1.7c0-1.4-0.9-1.7-2.1-1.7h-0.3V311.8z"/>
	<path class="st14" d="M22.6,314.6c0,0.9,0.4,2,1.5,2c0.7,0,1.1-0.4,1.4-1l1.9,0.3c-0.5,1.5-1.8,2.3-3.3,2.3c-2.3,0-3.7-1.6-3.7-3.9
		c0-2.2,1.2-4,3.6-4c2.4,0,3.5,1.8,3.5,4v0.3H22.6z M25.5,313.3c-0.1-0.8-0.6-1.5-1.4-1.5c-0.8,0-1.3,0.7-1.4,1.5H25.5z"/>
	<path class="st14" d="M31.9,314.7l1.5-4.2h2.3l-3.4,7.5h-1.1l-3.4-7.5h2.3L31.9,314.7z"/>
	<path class="st14" d="M39.3,307.5c0,0.7-0.6,1.2-1.2,1.2s-1.2-0.6-1.2-1.2c0-0.7,0.6-1.2,1.2-1.2S39.3,306.8,39.3,307.5z
		 M39.1,317.9H37v-7.4h2.1V317.9z"/>
	<path class="st14" d="M43,314.6c0,0.9,0.4,2,1.5,2c0.7,0,1.1-0.4,1.4-1l1.9,0.3c-0.5,1.5-1.8,2.3-3.3,2.3c-2.3,0-3.7-1.6-3.7-3.9
		c0-2.2,1.2-4,3.6-4c2.4,0,3.5,1.8,3.5,4v0.3H43z M45.9,313.3c-0.1-0.8-0.6-1.5-1.4-1.5c-0.8,0-1.3,0.7-1.4,1.5H45.9z"/>
	<path class="st14" d="M52.1,314.8l1.8-4.5h1l1.8,4.5l1.6-4.3h2.3l-3.4,7.5h-1.1l-1.6-4.5l-1.8,4.5h-1.1l-3.4-7.5h2.3L52.1,314.8z"
		/>
	<path class="st14" d="M63.2,314.6c0,0.9,0.4,2,1.5,2c0.7,0,1.1-0.4,1.4-1l1.9,0.3c-0.5,1.5-1.8,2.3-3.3,2.3c-2.3,0-3.7-1.6-3.7-3.9
		c0-2.2,1.2-4,3.6-4c2.4,0,3.5,1.8,3.5,4v0.3H63.2z M66.1,313.3c-0.1-0.8-0.6-1.5-1.4-1.5c-0.8,0-1.3,0.7-1.4,1.5H66.1z"/>
	<path class="st14" d="M71.8,311.3L71.8,311.3c0.4-0.6,1.1-1,1.9-1c0.3,0,0.6,0.1,0.9,0.2l-0.3,2c-0.3-0.2-0.6-0.3-0.9-0.3
		c-1.5,0-1.6,1.3-1.6,2.4v3.3h-2.1v-7.4h2.1V311.3z"/>
	<path class="st14" d="M79.6,312.3c-0.3-0.3-0.7-0.5-1.1-0.5c-0.3,0-0.7,0.3-0.7,0.6c0,0.5,0.8,0.7,1.5,1c0.8,0.3,1.5,0.8,1.5,2.1
		c0,1.6-1.3,2.6-2.9,2.6c-1,0-2-0.5-2.6-1.2l1-1.2c0.4,0.5,0.9,0.9,1.6,0.9c0.5,0,0.8-0.3,0.8-0.8c0-0.6-0.7-0.8-1.5-1.1
		c-0.7-0.3-1.5-0.8-1.5-1.9c0-1.4,1-2.4,2.3-2.4c0.8,0,1.8,0.2,2.4,0.8L79.6,312.3z"/>
</g>
<g>
	<rect x="505.9" y="300.6" class="st13" width="130" height="16.7"/>
	<path class="st14" d="M521.7,305c-0.6-0.8-1.5-1.2-2.5-1.2c-2.1,0-3.3,2-3.3,3.9c0,1.9,1.3,3.8,3.3,3.8c0.9,0,1.9-0.5,2.5-1.2v2.6
		c-0.8,0.4-1.6,0.7-2.6,0.7c-3.2,0-5.5-2.7-5.5-5.9c0-3.2,2.3-6,5.6-6c0.9,0,1.8,0.2,2.5,0.7V305z"/>
	<path class="st14" d="M530.8,309.6c0,2.3-1.6,3.9-3.9,3.9c-2.3,0-3.9-1.6-3.9-3.9c0-2.3,1.6-3.9,3.9-3.9S530.8,307.3,530.8,309.6z
		 M525.2,309.6c0,1,0.7,2.1,1.7,2.1s1.7-1.1,1.7-2.1c0-1-0.7-2.1-1.7-2.1S525.2,308.6,525.2,309.6z"/>
	<path class="st14" d="M537.4,312.6L537.4,312.6c-0.5,0.6-1.2,0.9-2,0.9c-2.2,0-3.4-2-3.4-4c0-2,1.2-3.9,3.4-3.9
		c0.8,0,1.5,0.3,2,0.9h0v-6h2.1v12.7h-2.1V312.6z M537.6,309.6c0-1-0.7-2.1-1.7-2.1s-1.7,1.1-1.7,2.1s0.7,2.1,1.7,2.1
		S537.6,310.6,537.6,309.6z"/>
	<path class="st14" d="M543.4,310c0,0.9,0.4,2,1.5,2c0.7,0,1.1-0.4,1.4-1l1.9,0.3c-0.5,1.5-1.8,2.3-3.3,2.3c-2.3,0-3.7-1.6-3.7-3.9
		c0-2.2,1.2-4,3.6-4c2.4,0,3.5,1.8,3.5,4v0.3H543.4z M546.3,308.7c-0.1-0.8-0.6-1.5-1.4-1.5c-0.8,0-1.3,0.7-1.4,1.5H546.3z"/>
	<path class="st14" d="M562.8,313.3h-2.7l-2.7-4.6h0v4.6h-2.2V302h3c2.2,0,3.8,1,3.8,3.4c0,1.4-0.8,2.9-2.3,3.1L562.8,313.3z
		 M557.3,307.2h0.3c1.2,0,2.1-0.4,2.1-1.7c0-1.4-0.9-1.7-2.1-1.7h-0.3V307.2z"/>
	<path class="st14" d="M565.5,310c0,0.9,0.4,2,1.5,2c0.7,0,1.1-0.4,1.4-1l1.9,0.3c-0.5,1.5-1.8,2.3-3.3,2.3c-2.3,0-3.7-1.6-3.7-3.9
		c0-2.2,1.2-4,3.6-4c2.4,0,3.5,1.8,3.5,4v0.3H565.5z M568.4,308.7c-0.1-0.8-0.6-1.5-1.4-1.5c-0.8,0-1.3,0.7-1.4,1.5H568.4z"/>
	<path class="st14" d="M574.1,306.6c0.5-0.6,1.3-0.9,2-0.9c2.1,0,3.4,2,3.4,3.9c0,2-1.2,4-3.4,4c-0.8,0-1.5-0.3-2-0.9h0v4.6H572
		v-11.3h2.1V306.6z M577.4,309.6c0-1-0.7-2.1-1.7-2.1s-1.7,1.1-1.7,2.1s0.7,2.1,1.7,2.1S577.4,310.6,577.4,309.6z"/>
	<path class="st14" d="M588.5,309.6c0,2.3-1.6,3.9-3.9,3.9c-2.3,0-3.9-1.6-3.9-3.9c0-2.3,1.6-3.9,3.9-3.9S588.5,307.3,588.5,309.6z
		 M582.9,309.6c0,1,0.7,2.1,1.7,2.1s1.7-1.1,1.7-2.1c0-1-0.7-2.1-1.7-2.1S582.9,308.6,582.9,309.6z"/>
	<path class="st14" d="M593.7,307.7c-0.3-0.3-0.7-0.5-1.1-0.5c-0.3,0-0.7,0.3-0.7,0.6c0,0.5,0.8,0.7,1.5,1c0.8,0.3,1.5,0.8,1.5,2.1
		c0,1.6-1.3,2.6-2.9,2.6c-1,0-2-0.5-2.6-1.2l1-1.2c0.4,0.4,0.9,0.9,1.6,0.9c0.5,0,0.8-0.3,0.8-0.8c0-0.6-0.7-0.8-1.5-1.1
		c-0.7-0.3-1.5-0.8-1.5-1.9c0-1.4,1-2.4,2.3-2.4c0.8,0,1.8,0.2,2.4,0.8L593.7,307.7z"/>
	<path class="st14" d="M599,302.8c0,0.7-0.6,1.2-1.2,1.2c-0.7,0-1.2-0.6-1.2-1.2c0-0.7,0.6-1.2,1.2-1.2
		C598.4,301.6,599,302.2,599,302.8z M598.8,313.3h-2.1v-7.4h2.1V313.3z"/>
	<path class="st14" d="M603.3,313.3h-2.1v-5.6h-0.7v-1.8h0.7v-2.5h2.1v2.5h1.3v1.8h-1.3V313.3z"/>
	<path class="st14" d="M613.1,309.6c0,2.3-1.6,3.9-3.9,3.9c-2.3,0-3.9-1.6-3.9-3.9c0-2.3,1.6-3.9,3.9-3.9S613.1,307.3,613.1,309.6z
		 M607.5,309.6c0,1,0.7,2.1,1.7,2.1s1.7-1.1,1.7-2.1c0-1-0.7-2.1-1.7-2.1S607.5,308.6,607.5,309.6z"/>
	<path class="st14" d="M616.8,306.7L616.8,306.7c0.4-0.6,1.1-1,1.9-1c0.3,0,0.6,0.1,0.9,0.2l-0.3,2c-0.3-0.2-0.6-0.3-0.9-0.3
		c-1.5,0-1.6,1.3-1.6,2.4v3.3h-2.1v-7.4h2.1V306.7z"/>
	<path class="st14" d="M620.4,305.9h2.4l1.8,4.2l1.9-4.2h2.3l-5.4,11.3h-2.3l2.4-5.1L620.4,305.9z"/>
</g>
<g>
</g>
<g>
</g>
<g>
</g>
<g>
</g>
<g>
</g>
<g>
</g>
<g>
</g>
<g>
</g>
<g>
</g>
<g>
</g>
<g>
</g>
<g>
</g>
<g>
</g>
<g>
</g>
<g>
</g>
<g>
</g>
</svg>
